<?xml version="1.0" encoding="utf-8"?>
<!-- Generator: Adobe Illustrator 19.0.0, SVG Export Plug-In . SVG Version: 6.00 Build 0)  -->
<svg version="1.1" id="Layer_1" xmlns="http://www.w3.org/2000/svg" xmlns:xlink="http://www.w3.org/1999/xlink" x="0px" y="0px"
	 viewBox="-309 371 180 60" style="enable-background:new -309 371 180 60;" xml:space="preserve">
<style type="text/css">
	.st0{fill-opacity:0;}
	.st1{fill:#AA1563;}
	.st2{fill:#422974;}
</style>
<rect id="XMLID_33_" x="-309" y="371" class="st0" width="180" height="60"/>
<path id="XMLID_41_" class="st1" d="M-151.2,387.1v-7.5c0-0.7-0.5-1.2-1.2-1.2h-2.9c-0.7,0-1.2,0.5-1.2,1.2v34
	c0,0.7,0.5,1.2,1.2,1.2h2.9c0.7,0,1.2-0.5,1.2-1.2v-18.8c0-0.7,0.5-1.2,1.2-1.2h2.4c0.7,0,1.2-0.5,1.2-1.2v-2.9
	c0-0.7-0.5-1.2-1.2-1.2h-2.4C-150.6,388.3-151.2,387.8-151.2,387.1z"/>
<path id="XMLID_84_" class="st2" d="M-191.4,397v7.7c0,1.8,2.2,2.8,3.5,1.5l3.9-3.9c0.8-0.8,0.8-2.1,0-2.9l-3.9-3.9
	C-189.2,394.2-191.4,395.1-191.4,397z"/>
<path id="XMLID_34_" class="st2" d="M-256.1,408.6c0.7,0.7,1.5,1,2.5,0.9c0.7,0,1.3-0.3,1.8-0.7c0.8-0.6,1.1-1.5,1.1-2.5
	c0-0.9-0.3-1.6-0.9-2.2c-0.4-0.4-1.3-1.1-2.7-2l0,0c-1.9-1-3.3-2-4.1-2.8c-1.4-1.4-2.1-3-2.1-4.9c0-2,0.8-4,2.3-5.5
	c1.4-1.3,3-2,4.9-2c2,0,3.6,0.7,5,2c0.8,0.8,1.4,1.7,1.7,2.7c0.1,0.3-0.1,0.5-0.3,0.6l-4.7,1.4c-0.1-0.4-0.2-0.6-0.3-0.8l-0.1-0.1
	c-0.3-0.3-0.7-0.4-1.2-0.4s-1,0.2-1.3,0.6c-0.4,0.4-0.6,0.8-0.6,1.3s0.2,1,0.5,1.3s1.1,0.8,2.2,1.6l0,0c2.1,1.2,3.7,2.2,4.6,3.2
	c1.7,1.7,2.5,3.7,2.5,6c0,2.4-0.8,4.4-2.5,6.1c-1.7,1.7-3.7,2.5-6,2.5c-2.3,0-4.4-0.8-6-2.5c-1-1-1.7-2.3-2.1-3.8
	c-0.1-0.3,0.1-0.6,0.4-0.6l4.3-0.9c0.3-0.1,0.5,0.1,0.6,0.3C-256.6,408-256.4,408.4-256.1,408.6z"/>
<path id="XMLID_82_" class="st2" d="M-182.8,386.7h-5.7c-1.1,0-1.6,1.3-0.8,2l11.1,11.1c0.5,0.5,0.5,1.2,0,1.7l-13.2,13.2v0.3h8.3
	c0.3,0,0.6-0.1,0.8-0.3l13.1-13.1c0.5-0.5,0.5-1.2,0-1.7l-12.8-12.8C-182.2,386.9-182.5,386.7-182.8,386.7z"/>
<path id="XMLID_44_" class="st1" d="M-305.6,394.2v13.5c0,3.2,3.9,4.8,6.1,2.5l6.7-6.7c1.4-1.4,1.4-3.7,0-5.1l-6.7-6.7
	C-301.7,389.4-305.6,391-305.6,394.2z"/>
<path id="XMLID_7_" class="st1" d="M-294,376.4h-10c-1.9,0-2.8,2.2-1.5,3.6l19.5,19.3c0.8,0.8,0.8,2.1,0,2.9l-23,23v0.5h14.5
	c0.6,0,1.1-0.2,1.5-0.6l22.8-22.8c0.8-0.8,0.8-2.1,0-2.9l-22.3-22.4C-292.9,376.6-293.4,376.4-294,376.4z"/>
<path id="XMLID_3_" class="st2" d="M-154.8,500.9h-10c-1.9,0-2.8,2.2-1.5,3.6l19.4,19.4c0.8,0.8,0.8,2.1,0,2.9l-23,23v0.5h14.5
	c0.6,0,1.1-0.2,1.5-0.6l22.8-22.8c0.8-0.8,0.8-2.1,0-2.9l-22.3-22.3C-153.7,501.1-154.2,500.9-154.8,500.9z"/>
<path id="XMLID_4_" class="st2" d="M-386.6,361l6.2,0.2c0.8,0,1.3-1,0.7-1.6l-1-1c-0.8-0.8-0.7-2.2,0.1-3l8.8-8.2
	c1.4-1.3,0.5-3.6-1.4-3.6l-2.9-0.1c-0.6,0-1.1,0.2-1.5,0.6l-11.9,11.1c-0.8,0.8-0.9,2.1-0.1,3l2.3,2.4
	C-387.1,360.9-386.9,361-386.6,361z"/>
<path id="XMLID_2_" class="st2" d="M-375.1,359.8l-6.5-0.2c-0.7,0-1.1,0.9-0.6,1.4l1.2,1.3c0.7,0.8,0.7,2.1-0.1,2.8l-9.1,8.5
	c-1.3,1.2-0.5,3.4,1.3,3.4l3.2,0.1c0.5,0,1-0.2,1.4-0.5l12-11.2c0.8-0.7,0.8-2,0.1-2.8l-2.4-2.5
	C-374.7,359.9-374.9,359.9-375.1,359.8z"/>
<path class="st2" d="M-196.2,386.9h-1.8c-0.4,0-0.9,0.4-0.9,1v14.9c0,0.9-1.1,1.3-1.6,0.7l-8.5-9.4c-0.5-0.5-1.2-0.6-1.8-0.3
	l-4.3,2.5c-0.4,0.3-0.7,0.7-0.7,1.2v16c0,1.3,1.6,2,2.5,1l7.5-8.1c0.3-0.4,1-0.4,1.4,0l8.3,8.7c0.9,0.9,2.5,0.3,2.5-1v-24.8
	C-193.8,388-194.9,386.9-196.2,386.9z"/>
<path class="st2" d="M-224.7,409.7c-0.2-0.4-0.7-0.5-1.1-0.3c-1.8,0.9-3.7,1.1-5.7,0.7c-1.9-0.4-3.2-1-4-1.7c-2.2-1.5-2.9-3.6-3-5.3
	c-0.2-0.7,0-1.7,0.2-3.1c0.5-2.4,1.9-4.6,3.9-5.9c2-1.3,4.3-1.7,6.6-1.2c1.7,0.4,2.8,0.8,3.4,1.3c0.2,0.1,0.1,0.3,0,0.5l-4.9,4.9
	c-0.5,1-1,2.7,1.9,2.2l7.5-4c0,0,0,0,0.1,0l2.1-1.4c0.5-0.3,0.7-1,0.4-1.6c-0.3-0.4-0.4-0.7-0.5-0.8c-0.3-0.5-0.6-1-0.9-1.3
	c-2-2.5-4.6-4.1-8-4.8c-3.4-0.7-6.6-0.3-9.6,1.4c-3.9,2.1-6.7,6.1-7.3,10.6c-0.5,3.4,0.2,6.6,2.1,9.6c2.1,3.3,5.1,5.3,8.9,6.1
	c3.5,0.8,6.7,0.3,9.8-1.4c0.4-0.2,0.6-0.8,0.3-1.2L-224.7,409.7z"/>
<path class="st1" d="M-163.3,392.8c-0.8,0.8-2.1,0.8-2.9,0l-0.9-0.9c-0.2,0.3-0.3,0.6-0.3,1v3.4c0,0.3,0.1,0.6,0.3,0.8l1.7,1.7
	c1.1,1.1,1.1,2.9,0,4l-1.7,1.7c-0.2,0.2-0.3,0.5-0.3,0.8v6.5c0,1.5,1.3,2.8,2.8,2.8h0c1.5,0,2.8-1.3,2.8-2.8v-18.8
	c0-0.4-0.2-0.8-0.4-1.1L-163.3,392.8z"/>
<path id="XMLID_5_" class="st1" d="M-168.4,385.7l2.7,2.7c0.6,0.6,1.4,0.6,2,0l2.7-2.7c0.9-0.9,0.2-2.4-1-2.4h-5.3
	C-168.6,383.3-169.3,384.8-168.4,385.7z"/>
</svg>
